<svg xmlns="http://www.w3.org/2000/svg" viewBox="0 0 64 64" width="64" height="64" role="img" aria-label="噬魂者">
  <!-- 噬魂者 · 幽暗星域 -->
  <polygon points="22,54 42,54 46,58 18,58" fill="#2A3350"/>
  <polygon points="25,44 29,44 29,54 25,54" fill="#6B45C9"/>
  <polygon points="33,44 37,44 37,54 33,54" fill="#6B45C9"/>
  <polygon points="25,26 39,26 37,44 27,44" fill="#6B45C9"/>
  <polygon points="26,27 33,27 33,43 28,43" fill="#9B6BFF"/>
  <polygon points="26,27 29,27 28,43 26,43" fill="#C0A6FF" opacity="0.75"/>
  <polygon points="28,24 20,22 19,32 27,31" fill="#9B6BFF"/>
  <polygon points="36,24 44,22 45,32 37,31" fill="#9B6BFF"/>
  <polygon points="27,15 37,15 39,25 36,27 28,27 25,25" fill="#9B6BFF"/>
  <polygon points="27,18 37,18 37,21 27,21" fill="#E4DAFF" opacity="0.85"/>
  <polygon points="27,15 30,15 28,24 26,25" fill="#C0A6FF" opacity="0.6"/>
  <polygon points="25,30 23,30 23,42 25,42" fill="#6B45C9"/>
  <polygon points="37,30 41,30 41,42 37,42" fill="#6B45C9"/>
  <circle cx="44" cy="38" r="3.2" fill="#E4DAFF"/>
  <circle cx="20" cy="40" r="3.2" fill="#E4DAFF"/>
  <g transform="translate(43.0,38.0) rotate(14.0)"><polygon points="0,-4 7,-9 5,10 -1,12" fill="#E4DAFF"/><polygon points="0,-4 3,-6 2,10 -1,12" fill="#D9C9FF" opacity="0.5"/></g>
  <g transform="translate(21.0,40.0) rotate(-14.0)"><polygon points="0,-4 7,-9 5,10 -1,12" fill="#E4DAFF"/><polygon points="0,-4 3,-6 2,10 -1,12" fill="#D9C9FF" opacity="0.5"/></g>
  <circle cx="20" cy="20" r="3" fill="#D9C9FF" opacity="0.75"/>
  <circle cx="46" cy="16" r="2.4" fill="#D9C9FF" opacity="0.6"/>
  <circle cx="38" cy="10" r="2" fill="#D9C9FF" opacity="0.5"/>
</svg>
