<svg xmlns="http://www.w3.org/2000/svg" viewBox="0 0 64 64" width="64" height="64" role="img" aria-label="均衡战士E">
  <!-- 均衡战士E · 平衡星域 -->
  <polygon points="19,54 45,54 49,58 15,58" fill="#2A3350"/>
  <polygon points="19,44 28,44 28,54 19,54" fill="#56617C"/>
  <polygon points="33,44 42,44 42,54 33,54" fill="#56617C"/>
  <polygon points="20,26 44,26 42,44 22,44" fill="#56617C"/>
  <polygon points="21,27 33,27 33,43 23,43" fill="#7C8BA8"/>
  <polygon points="21,27 24,27 23,43 21,43" fill="#A9B6CE" opacity="0.75"/>
  <polygon points="23,24 15,22 14,32 22,31" fill="#7C8BA8"/>
  <polygon points="41,24 49,22 50,32 42,31" fill="#7C8BA8"/>
  <polygon points="27,16 37,16 39,25 36,27 28,27 25,25" fill="#7C8BA8"/>
  <polygon points="27,19 37,19 37,22 27,22" fill="#CBD6E8" opacity="0.85"/>
  <polygon points="27,16 30,16 28,25 26,25" fill="#A9B6CE" opacity="0.6"/>
  <polygon points="20,30 18,30 18,42 20,42" fill="#56617C"/>
  <polygon points="42,30 46,30 46,42 42,42" fill="#56617C"/>
  <circle cx="49" cy="38" r="3.2" fill="#CBD6E8"/>
  <circle cx="15" cy="40" r="3.2" fill="#CBD6E8"/>
  <g transform="translate(10.0,39.0) rotate(-8.0)"><polygon points="-9,-12.0 9,-12.0 9,7.0 0,12.0 -9,7.0" fill="#CBD6E8"/><polygon points="-6.5,-9.5 6.5,-9.5 6.5,6.0 0,9.0 -6.5,6.0" fill="#7C8BA8"/><polygon points="-6.5,-9.5 0,-9.5 0,9.0 -6.5,6.0" fill="#A9B6CE" opacity="0.55"/></g>
  <polygon points="5,22 11,26 5,30" fill="#CBD6E8" opacity="0.6"/>
</svg>
